<?xml version="1.0" encoding="UTF-8"?>
<svg width="33px" height="32px" viewBox="0 0 33 32" version="1.1" xmlns="http://www.w3.org/2000/svg" xmlns:xlink="http://www.w3.org/1999/xlink">
    <!-- Generator: Sketch 49.1 (51147) - http://www.bohemiancoding.com/sketch -->
    <title>favicon</title>
    <desc>Created with Sketch.</desc>
    <defs></defs>
    <g id="Page-1" stroke="none" stroke-width="1" fill="none" fill-rule="evenodd">
        <g id="favicon" fill="#03A9F4" fill-rule="nonzero">
            <g id="Group" transform="translate(0.000000, 16.000000)">
                <path d="M11,0 L11,5.6 C9.54202916,5.6 8.4978057,5.85454174 6.32182281,6.63142159 C6.18274198,6.68110486 6.18274198,6.68110486 6.04163885,6.73149157 C5.93213153,6.7705664 5.84215109,6.80256958 5.75512807,6.83335905 C3.45880259,7.64581819 1.95142166,8 0,8 L0,2.4 C1.14113827,2.4 2.0946238,2.17596424 3.82146087,1.56499486 C3.90295055,1.53616313 3.98835744,1.50578662 4.0934063,1.46830267 C4.23176705,1.41889514 4.23176705,1.41889514 4.37262163,1.36857841 C7.12870396,0.384588692 8.70642763,0 11,0 Z" id="Stroke-17"></path>
                <path d="M11,5.6 L11,0 C13.2935724,0 14.871296,0.384588692 17.6273784,1.36857841 C17.7682329,1.41889514 17.7682329,1.41889514 17.9065937,1.46830267 C18.0116426,1.50578662 18.0970495,1.53616313 18.1785391,1.56499486 C19.9053762,2.17596424 20.8588617,2.4 22,2.4 L22,8 C20.0485783,8 18.5411974,7.64581819 16.2448719,6.83335905 C16.1578489,6.80256958 16.0678685,6.7705664 15.9583611,6.73149157 C15.817258,6.68110486 15.817258,6.68110486 15.6781772,6.63142159 C13.5021943,5.85454174 12.4579708,5.6 11,5.6 Z" id="Stroke-20"></path>
                <path d="M33,0 L33,5.6 C31.5420292,5.6 30.4978057,5.85454174 28.3218228,6.63142159 C28.182742,6.68110486 28.182742,6.68110486 28.0416389,6.73149157 C27.9321315,6.7705664 27.8421511,6.80256958 27.7551281,6.83335905 C25.4588026,7.64581819 23.9514217,8 22,8 L22,2.4 C23.1411383,2.4 24.0946238,2.17596424 25.8214609,1.56499486 C25.9029505,1.53616313 25.9883574,1.50578662 26.0934063,1.46830267 C26.2317671,1.41889514 26.2317671,1.41889514 26.3726216,1.36857841 C29.128704,0.384588692 30.7064276,0 33,0 Z" id="Stroke-21"></path>
            </g>
            <g id="Group-Copy" transform="translate(0.000000, 24.000000)">
                <path d="M11,0 L11,5.6 C9.54202916,5.6 8.4978057,5.85454174 6.32182281,6.63142159 C6.18274198,6.68110486 6.18274198,6.68110486 6.04163885,6.73149157 C5.93213153,6.7705664 5.84215109,6.80256958 5.75512807,6.83335905 C3.45880259,7.64581819 1.95142166,8 0,8 L0,2.4 C1.14113827,2.4 2.0946238,2.17596424 3.82146087,1.56499486 C3.90295055,1.53616313 3.98835744,1.50578662 4.0934063,1.46830267 C4.23176705,1.41889514 4.23176705,1.41889514 4.37262163,1.36857841 C7.12870396,0.384588692 8.70642763,0 11,0 Z" id="Stroke-17"></path>
                <path d="M11,5.6 L11,0 C13.2935724,0 14.871296,0.384588692 17.6273784,1.36857841 C17.7682329,1.41889514 17.7682329,1.41889514 17.9065937,1.46830267 C18.0116426,1.50578662 18.0970495,1.53616313 18.1785391,1.56499486 C19.9053762,2.17596424 20.8588617,2.4 22,2.4 L22,8 C20.0485783,8 18.5411974,7.64581819 16.2448719,6.83335905 C16.1578489,6.80256958 16.0678685,6.7705664 15.9583611,6.73149157 C15.817258,6.68110486 15.817258,6.68110486 15.6781772,6.63142159 C13.5021943,5.85454174 12.4579708,5.6 11,5.6 Z" id="Stroke-20"></path>
                <path d="M33,0 L33,5.6 C31.5420292,5.6 30.4978057,5.85454174 28.3218228,6.63142159 C28.182742,6.68110486 28.182742,6.68110486 28.0416389,6.73149157 C27.9321315,6.7705664 27.8421511,6.80256958 27.7551281,6.83335905 C25.4588026,7.64581819 23.9514217,8 22,8 L22,2.4 C23.1411383,2.4 24.0946238,2.17596424 25.8214609,1.56499486 C25.9029505,1.53616313 25.9883574,1.50578662 26.0934063,1.46830267 C26.2317671,1.41889514 26.2317671,1.41889514 26.3726216,1.36857841 C29.128704,0.384588692 30.7064276,0 33,0 Z" id="Stroke-21"></path>
            </g>
            <g id="Group-Copy-2" transform="translate(0.000000, 8.000000)">
                <path d="M11,0 L11,5.6 C9.54202916,5.6 8.4978057,5.85454174 6.32182281,6.63142159 C6.18274198,6.68110486 6.18274198,6.68110486 6.04163885,6.73149157 C5.93213153,6.7705664 5.84215109,6.80256958 5.75512807,6.83335905 C3.45880259,7.64581819 1.95142166,8 0,8 L0,2.4 C1.14113827,2.4 2.0946238,2.17596424 3.82146087,1.56499486 C3.90295055,1.53616313 3.98835744,1.50578662 4.0934063,1.46830267 C4.23176705,1.41889514 4.23176705,1.41889514 4.37262163,1.36857841 C7.12870396,0.384588692 8.70642763,0 11,0 Z" id="Stroke-17"></path>
                <path d="M11,5.6 L11,0 C13.2935724,0 14.871296,0.384588692 17.6273784,1.36857841 C17.7682329,1.41889514 17.7682329,1.41889514 17.9065937,1.46830267 C18.0116426,1.50578662 18.0970495,1.53616313 18.1785391,1.56499486 C19.9053762,2.17596424 20.8588617,2.4 22,2.4 L22,8 C20.0485783,8 18.5411974,7.64581819 16.2448719,6.83335905 C16.1578489,6.80256958 16.0678685,6.7705664 15.9583611,6.73149157 C15.817258,6.68110486 15.817258,6.68110486 15.6781772,6.63142159 C13.5021943,5.85454174 12.4579708,5.6 11,5.6 Z" id="Stroke-20"></path>
                <path d="M33,0 L33,5.6 C31.5420292,5.6 30.4978057,5.85454174 28.3218228,6.63142159 C28.182742,6.68110486 28.182742,6.68110486 28.0416389,6.73149157 C27.9321315,6.7705664 27.8421511,6.80256958 27.7551281,6.83335905 C25.4588026,7.64581819 23.9514217,8 22,8 L22,2.4 C23.1411383,2.4 24.0946238,2.17596424 25.8214609,1.56499486 C25.9029505,1.53616313 25.9883574,1.50578662 26.0934063,1.46830267 C26.2317671,1.41889514 26.2317671,1.41889514 26.3726216,1.36857841 C29.128704,0.384588692 30.7064276,0 33,0 Z" id="Stroke-21"></path>
            </g>
            <g id="Group-Copy-3">
                <path d="M11,0 L11,5.6 C9.54202916,5.6 8.4978057,5.85454174 6.32182281,6.63142159 C6.18274198,6.68110486 6.18274198,6.68110486 6.04163885,6.73149157 C5.93213153,6.7705664 5.84215109,6.80256958 5.75512807,6.83335905 C3.45880259,7.64581819 1.95142166,8 0,8 L0,2.4 C1.14113827,2.4 2.0946238,2.17596424 3.82146087,1.56499486 C3.90295055,1.53616313 3.98835744,1.50578662 4.0934063,1.46830267 C4.23176705,1.41889514 4.23176705,1.41889514 4.37262163,1.36857841 C7.12870396,0.384588692 8.70642763,0 11,0 Z" id="Stroke-17"></path>
                <path d="M11,5.6 L11,0 C13.2935724,0 14.871296,0.384588692 17.6273784,1.36857841 C17.7682329,1.41889514 17.7682329,1.41889514 17.9065937,1.46830267 C18.0116426,1.50578662 18.0970495,1.53616313 18.1785391,1.56499486 C19.9053762,2.17596424 20.8588617,2.4 22,2.4 L22,8 C20.0485783,8 18.5411974,7.64581819 16.2448719,6.83335905 C16.1578489,6.80256958 16.0678685,6.7705664 15.9583611,6.73149157 C15.817258,6.68110486 15.817258,6.68110486 15.6781772,6.63142159 C13.5021943,5.85454174 12.4579708,5.6 11,5.6 Z" id="Stroke-20"></path>
                <path d="M33,0 L33,5.6 C31.5420292,5.6 30.4978057,5.85454174 28.3218228,6.63142159 C28.182742,6.68110486 28.182742,6.68110486 28.0416389,6.73149157 C27.9321315,6.7705664 27.8421511,6.80256958 27.7551281,6.83335905 C25.4588026,7.64581819 23.9514217,8 22,8 L22,2.4 C23.1411383,2.4 24.0946238,2.17596424 25.8214609,1.56499486 C25.9029505,1.53616313 25.9883574,1.50578662 26.0934063,1.46830267 C26.2317671,1.41889514 26.2317671,1.41889514 26.3726216,1.36857841 C29.128704,0.384588692 30.7064276,0 33,0 Z" id="Stroke-21"></path>
            </g>
        </g>
    </g>
</svg>