<svg version="1" xmlns="http://www.w3.org/2000/svg" width="880" height="880" viewBox="0 0 660.000000 660.000000"><path d="M202 10.4c-.3.2-3.7.6-7.5.7-3.9.1-8.8.6-11 1-2.2.4-6.2 1-9 1.3-6.5.7-27.1 5-36 7.5-10.9 3-20.3 5.9-21.3 6.5-.5.3-1.9.7-3.3 1-1.3.3-8.9 2.8-16.9 5.6-32.5 11.6-54.4 18.6-64.3 20.6-8.6 1.7-21.5 3.2-28.9 3.3L0 58v112.2l13.4-.6c7.4-.4 14.5-.9 15.8-1.1 1.3-.2 4.6-.6 7.3-1 4.7-.5 17.3-2.8 22.2-4 1.3-.3 3.1-.7 4-.9 12.5-2.9 23.6-6.3 42.8-12.8 50-17.2 66-22.2 77.5-24.3 13.1-2.4 19.1-2.9 35-3 34.6 0 43.9 2.1 114 26.5 11.3 3.9 23.9 8 28 9.1 7.1 2 8.5 2.3 12.8 3.3.9.2 4.4 1.1 7.7 1.9 3.3.8 7.6 1.8 9.5 2.1 1.9.3 4.6.8 6 1.1 1.4.3 4.5.8 7 1 2.5.3 7.9.9 12 1.4 7.1.8 48.6.6 54-.3 1.4-.2 4.8-.7 7.5-1 23.1-3 48.6-10.2 98.9-28 34.8-12.3 56.8-17.2 79.4-17.5l5.2-.1V9.7l-14.2.7c-7.9.4-15.6.9-17.3 1.1-7.4.8-13.4 1.6-18.5 2.5-3 .5-7 1.2-8.8 1.5-11.9 2-42.3 10.7-62.7 18-36.1 12.9-46.5 16.2-62 20-14.4 3.4-20 4-38.5 3.9-25.4 0-32.2-1.7-101-25.2-33.6-11.5-56.3-17.3-77.5-19.8-3.3-.4-7.1-.9-8.5-1.1-3.7-.6-48.5-1.5-49-.9zM201 170.3c-.3.3-4.5.7-9.5 1.1-8.7.6-12.7 1-19 2.2-1.6.3-4.8.7-7 1-13.6 1.9-50.8 13-84 24.9-12.5 4.5-35.9 12.1-40 13-19.5 4.3-25.5 5.2-36.7 5.4L0 218v112.2l14.2-.6c7.9-.4 15-.9 15.8-1.1.8-.2 3.8-.6 6.5-1 4.7-.5 17.2-2.8 22.2-4 1.3-.3 3.1-.7 4-.9 12.6-3 23.8-6.3 44.3-13.3 46.4-15.9 53.5-18.2 64-20.9 5.8-1.4 11.9-2.8 13.5-3.1 1.7-.2 3.6-.6 4.3-.8 3.1-1.1 17.9-2 31.7-2 31.7 0 42.8 2.6 108.5 25.4 12.9 4.5 26.9 9.1 31 10.2 7.1 2 8.5 2.3 12.8 3.3.9.2 4.4 1.1 7.7 1.9 5.9 1.5 9.2 2.1 17 3.2 2.2.4 5.1.8 6.5 1.1 14.6 2.6 57 2.6 72.5 0 1.7-.3 6.2-1 10-1.7 18.7-3 37.4-8.5 91.5-27.1 23-7.9 34.9-11.3 48-13.8 7.9-1.5 20.4-2.8 28.8-2.9l5.2-.1V169.8l-14.2.6c-7.9.4-15.9.9-17.8 1.1-31 3.4-55.6 9.9-109.5 29-38 13.4-55.5 17.3-78.5 17.3-20.7 0-39.2-3.8-69.5-14.3-8.8-3-16.7-5.7-17.5-6-.8-.2-10.1-3.4-20.7-6.9-33.2-11.3-52.7-15.9-80.8-19.2-5.6-.7-50-1.6-50.5-1.1z"/><path d="M201 330.3c-.3.3-4.5.7-9.5 1.1-4.9.3-10.1.8-11.5 1-1.4.2-4.7.8-7.5 1.2-2.7.4-5.7.9-6.5 1-.8.2-3.1.6-5 .9-15.7 2.7-37.1 9.2-84 25.5-14.6 5-29.2 9.8-32.5 10.6-3.3.8-6.9 1.7-8 2-9.5 2.3-22.6 4.1-31.7 4.3L0 378v112.2l12.7-.6c31.8-1.5 56.9-7.1 101.3-22.7 30.3-10.5 48.4-16.4 58.5-18.9 9.9-2.4 10.1-2.5 16.3-3.5 2.3-.4 5.4-.9 7-1.1 5.2-.9 38.7-1.2 44.7-.4 11.5 1.5 16 2.2 16.6 2.6.3.2 2.1.6 4 .9 6.7 1.2 28.7 7.8 45.4 13.7 35.6 12.6 64.6 21.6 78.5 24.3 7.8 1.5 23.2 3.7 30.5 4.4 8.4.9 47.9.6 53.5-.3 1.4-.2 4.8-.7 7.5-1 17.4-2.3 38.2-7.5 63.8-16 17.4-5.8 51.2-17.5 51.2-17.7 0 0 .7-.2 1.5-.4s7.1-1.9 14-3.9c6.8-2 14.5-3.9 17-4.2 2.5-.3 4.8-.8 5.1-1 .3-.2 3.9-.6 8-1 4.1-.3 8.5-.8 9.9-.9 1.4-.2 4.9-.4 7.8-.4l5.2-.1V329.7l-14.2.7c-7.9.4-15.4.8-16.8 1-1.4.2-5 .6-8 1-28.2 3.6-50.6 9.7-102.5 28.1-25.6 9.1-44.5 14.4-58 16.2-7.3 1-34.2 1-40.9 0-13.3-2-26.7-5.6-51.1-14-65.7-22.4-83.1-27.2-109.1-30.3-2.7-.3-6.2-.8-7.9-1-4.1-.7-49.9-1.6-50.5-1.1zM202 490.3c-.3.3-4.5.7-9.5 1.1-11.4.8-17.5 1.6-30.7 4-11.2 2.1-41.9 10.3-44.6 12-.5.3-1.9.7-3.3 1-1.3.2-8.2 2.6-15.4 5.1-23.5 8.4-47.9 16.6-54 18.1-3.3.8-6.9 1.7-8 2-8.2 2.1-23.5 4.1-32.7 4.3L0 538v112.2l13.4-.6c7.4-.4 14.5-.9 15.8-1.1 1.3-.2 4.6-.6 7.3-1 18.8-2.3 46.1-9.6 77.9-20.7 38.7-13.5 58.4-19.6 69.6-21.4 1.4-.2 3.5-.6 4.7-.9 5.5-1.3 17-2 31.3-2 32.5 0 43.3 2.5 110.3 25.9 16 5.6 31.7 10.5 39 12.2.9.2 2.5.6 3.5.8.9.2 4.4 1.1 7.7 1.9 5.9 1.5 9.2 2.1 17 3.2 2.2.4 5.1.8 6.5 1.1 15 2.7 56.9 2.6 74-.2 21.7-3.4 47.1-10.2 74.5-19.9 58.3-20.6 76.6-25.1 103.3-25.4l4.2-.1V489.7l-14.2.7c-7.9.4-15.6.9-17.3 1.1-6.9.7-13.3 1.6-18.5 2.5-3 .5-7 1.2-8.8 1.5-14.9 2.5-41 10.4-83.7 25.3-40.3 14.1-54.6 17.1-79 16.7-8.8-.2-17.6-.5-19.5-.9-17.3-2.9-32.9-7.3-59-16.6-48.9-17.4-71.8-23.7-100.7-27.5-2.3-.3-5.7-.8-7.5-1.1-4.2-.7-49.2-1.6-49.8-1.1z"/></svg>