<?xml version="1.0" encoding="UTF-8"?>
<svg width="79px" height="27px" viewBox="0 0 79 27" version="1.1" xmlns="http://www.w3.org/2000/svg" xmlns:xlink="http://www.w3.org/1999/xlink">
    <!-- Generator: Sketch 49.1 (51147) - http://www.bohemiancoding.com/sketch -->
    <title>Page 1</title>
    <desc>Created with Sketch.</desc>
    <defs>
        <polygon id="path-1" points="0 27 80 27 80 0 0 0"></polygon>
    </defs>
    <g id="Symbols" stroke="none" stroke-width="1" fill="none" fill-rule="evenodd">
        <g id="logo/CTXfloods-v1-light">
            <g id="Page-1">
                <path d="M7.97848889,13.8371273 C7.97777778,14.3811273 7.87626667,14.9004 7.67431111,15.3944 C7.472,15.8887636 7.19324444,16.3211273 6.83857778,16.6916727 C6.4832,17.0620364 6.06773333,17.3582182 5.59217778,17.5802182 C5.11626667,17.8022182 4.60426667,17.9125818 4.05653333,17.9118545 C3.5888,17.9111273 3.1136,17.8445818 2.63022222,17.7120364 C2.14684444,17.5798545 1.712,17.3524 1.32551111,17.0302182 C0.939022222,16.7084 0.621155556,16.2838545 0.372266667,15.7556727 C0.122844444,15.2278545 -0.00106666667,14.5602182 4.93489865e-17,13.7522182 L0.0124444444,4.05912727 C0.0131555556,3.4824 0.110577778,2.94676364 0.304711111,2.45221818 C0.498666667,1.95803636 0.773155556,1.53003636 1.12817778,1.16749091 C1.4832,0.805672727 1.90666667,0.521854545 2.39875556,0.316218182 C2.89048889,0.110945455 3.43448889,0.0084 4.03111111,0.00930909091 C4.59502222,0.0100363636 5.11911111,0.113854545 5.60231111,0.3204 C6.08568889,0.527490909 6.50417778,0.816218182 6.85848889,1.18767273 C7.21226667,1.55912727 7.48977778,2.0044 7.69084444,2.52385455 C7.89155556,3.04367273 7.99164444,3.60858182 7.99075556,4.2184 L7.98951111,5.20730909 L5.52355556,5.20403636 L5.52462222,4.36330909 C5.52515556,3.86876364 5.38862222,3.44003636 5.1152,3.07676364 C4.84142222,2.71403636 4.47093333,2.53203636 4.00373333,2.53130909 C3.39093333,2.53058182 2.98382222,2.72403636 2.78204444,3.11094545 C2.57973333,3.49821818 2.47857778,3.98821818 2.47786667,4.58185455 L2.46631111,13.5825818 C2.4656,14.0934909 2.57386667,14.5224 2.79111111,14.8687636 C3.00817778,15.2153091 3.39857778,15.3887636 3.96302222,15.3894909 C4.12391111,15.3896727 4.29724444,15.3614909 4.48284444,15.3036727 C4.66808889,15.2464 4.83751111,15.1518545 4.99093333,15.0200364 C5.14417778,14.8884 5.26951111,14.7074909 5.36657778,14.4765818 C5.46364444,14.2460364 5.51217778,13.9574909 5.51271111,13.6113091 L5.51377778,12.7458545 L7.97991111,12.7493091 L7.97848889,13.8371273 Z" id="Fill-1" fill="#FFFFFF"></path>
                <polygon id="Fill-4" fill="#FFFFFF" points="11.7918669 2.4298913 9 2.4259892 9.00295749 0 17 0.0111488474 16.9970425 2.43713805 14.2051756 2.43342177 14.1860389 18 11.7727302 17.9966553"></polygon>
                <polygon id="Fill-6" fill="#FFFFFF" points="21.6765394 8.5685714 18.3036653 0 21.0518083 0.00352944819 23.0040227 5.33671142 24.9959025 0.00873074026 27.7440455 0.012074428 24.2720078 8.57210085 28 18 25.251857 17.9966563 22.9952289 11.9304637 20.748143 17.990712 18 17.9871825"></polygon>
                <path d="M30.3157895,7.20505618 L29,7.20505618 L29,5.18258427 L30.3157895,5.18258427 L30.3157895,3.43820225 C30.3157895,2.81491656 30.4119582,2.28792135 30.6052632,1.85814607 C30.7981811,1.42837079 31.056695,1.07462409 31.3815789,0.796348315 C31.7060759,0.518258427 32.0744969,0.316011236 32.4868421,0.189792631 C32.8988003,0.0632022472 33.3244969,0 33.7631579,0 L35,0 L35,2.42696629 L33.7894737,2.42696629 C33.2631579,2.42696629 33,2.72215796 33,3.31198364 L33,5.18258427 L35,5.18258427 L35,7.20505618 L33,7.20505618 L33,18 L30.3157895,18 L30.3157895,7.20505618 Z" id="Fill-8" fill="#03A9F4"></path>
                <mask id="mask-2" fill="white">
                    <use xlink:href="#path-1"></use>
                </mask>
                <g id="Clip-11"></g>
                <path d="M37,18.2 L37,0 L40,0 L40,17.3175314 C39.618051,17.4364755 39.2665606,17.5746134 38.9327778,17.7058 C38.257963,17.971 37.6753704,18.2 37,18.2 Z" id="Combined-Shape" fill="#03A9F4" mask="url(#mask-2)"></path>
                <path d="M44.3486842,13.9921087 C44.3486842,14.4766803 44.4523026,14.8400629 44.6595395,15.0817041 C44.8667763,15.3238978 45.1466476,15.4450867 45.5,15.4450867 C45.8530137,15.4450867 46.1332237,15.3238978 46.3404605,15.0817041 C46.5476974,14.8400629 46.6513158,14.4766803 46.6513158,13.9921087 L46.6513158,9.00770713 C46.6513158,8.52350391 46.5476974,8.16030545 46.3404605,7.91811175 C46.1332237,7.67610223 45.8530137,7.55472912 45.5,7.55472912 C45.1466476,7.55472912 44.8667763,7.67610223 44.6595395,7.91811175 C44.4523026,8.16030545 44.3486842,8.52350391 44.3486842,9.00770713 L44.3486842,13.9921087 Z M42,9.40829366 C42,8.89093846 42.0306453,8.41502323 42.0921053,7.980548 C42.1532266,7.5466253 42.2683582,7.16261476 42.4375,6.8283322 C42.7138158,6.27727247 43.1128822,5.83506177 43.6348684,5.50077921 C44.1565161,5.16704919 44.7783959,5 45.5,5 C46.2214348,5 46.8431453,5.16704919 47.3651316,5.50077921 C47.8867792,5.83506177 48.2861842,6.27727247 48.5625,6.8283322 C48.7313032,7.16261476 48.8464348,7.5466253 48.9078947,7.980548 C48.9691854,8.41502323 49,8.89093846 49,9.40829366 L49,13.591338 C49,14.1092457 48.9691854,14.5851609 48.9078947,15.0190836 C48.8464348,15.4537431 48.7313032,15.8375694 48.5625,16.1712994 C48.2861842,16.7223592 47.8867792,17.1651224 47.3651316,17.4988524 C46.8431453,17.833135 46.2214348,18 45.5,18 C44.7783959,18 44.1565161,17.833135 43.6348684,17.4988524 C43.1128822,17.1651224 42.7138158,16.7223592 42.4375,16.1712994 C42.2683582,15.8375694 42.1532266,15.4537431 42.0921053,15.0190836 C42.0306453,14.5851609 42,14.1092457 42,13.591338 L42,9.40829366 Z" id="Fill-12" fill="#03A9F4" mask="url(#mask-2)"></path>
                <path d="M54.3486842,13.9921087 C54.3486842,14.4766803 54.4523026,14.8400629 54.6595395,15.0817041 C54.8667763,15.3238978 55.1466476,15.4450867 55.5,15.4450867 C55.8530137,15.4450867 56.1332237,15.3238978 56.3404605,15.0817041 C56.5476974,14.8400629 56.6513158,14.4766803 56.6513158,13.9921087 L56.6513158,9.00770713 C56.6513158,8.52350391 56.5476974,8.16030545 56.3404605,7.91811175 C56.1332237,7.67610223 55.8530137,7.55472912 55.5,7.55472912 C55.1466476,7.55472912 54.8667763,7.67610223 54.6595395,7.91811175 C54.4523026,8.16030545 54.3486842,8.52350391 54.3486842,9.00770713 L54.3486842,13.9921087 Z M52,9.40829366 C52,8.89093846 52.0306453,8.41502323 52.0921053,7.980548 C52.1532266,7.5466253 52.2683582,7.16261476 52.4375,6.8283322 C52.7138158,6.27727247 53.1128822,5.83506177 53.6348684,5.50077921 C54.1565161,5.16704919 54.7783959,5 55.5,5 C56.2214348,5 56.8431453,5.16704919 57.3651316,5.50077921 C57.8867792,5.83506177 58.2861842,6.27727247 58.5625,6.8283322 C58.7313032,7.16261476 58.8464348,7.5466253 58.9078947,7.980548 C58.9691854,8.41502323 59,8.89093846 59,9.40829366 L59,13.591338 C59,14.1092457 58.9691854,14.5851609 58.9078947,15.0190836 C58.8464348,15.4537431 58.7313032,15.8375694 58.5625,16.1712994 C58.2861842,16.7223592 57.8867792,17.1651224 57.3651316,17.4988524 C56.8431453,17.833135 56.2214348,18 55.5,18 C54.7783959,18 54.1565161,17.833135 53.6348684,17.4988524 C53.1128822,17.1651224 52.7138158,16.7223592 52.4375,16.1712994 C52.2683582,15.8375694 52.1532266,15.4537431 52.0921053,15.0190836 C52.0306453,14.5851609 52,14.1092457 52,13.591338 L52,9.40829366 Z" id="Fill-13" fill="#03A9F4" mask="url(#mask-2)"></path>
                <path d="M64.6754098,13.7129515 C64.6754098,14.2312978 64.7803279,14.6491823 64.9901639,14.9666049 C65.2,15.2840275 65.531919,15.4429231 65.9868852,15.4429231 C66.3890068,15.4429231 66.7122469,15.2967465 66.957377,15.004209 C67.2021215,14.7118557 67.3245902,14.331391 67.3245902,13.8633678 L67.3245902,8.92469969 C67.3245902,8.52377392 67.1974928,8.19400096 66.9442623,7.93445913 C66.6906461,7.67565464 66.3712633,7.54588373 65.9868852,7.54588373 C65.47946,7.54588373 65.1344262,7.69630001 64.9508197,7.99713259 C64.7672131,8.29796516 64.6754098,8.6489365 64.6754098,9.0500466 L64.6754098,13.7129515 Z M67.3245902,16.6963922 C67.1496625,16.8805415 66.9836066,17.0514189 66.8262295,17.2103145 C66.6688525,17.3692101 66.4939248,17.5070917 66.3016393,17.6239593 C66.1089682,17.7410112 65.8906461,17.833178 65.6459016,17.8997225 C65.4007715,17.9660826 65.1122469,18 64.7803279,18 C63.6786885,18 62.9004822,17.5987056 62.4459016,16.7966697 C62.2885246,16.5126115 62.1745419,16.1616402 62.104918,15.7437557 C62.0349084,15.3260556 62,14.7660498 62,14.0639228 L62,9.22553226 C62,8.30662884 62.0262295,7.62975555 62.0786885,7.19509672 C62.1311475,6.76062223 62.2445516,6.40965089 62.4196721,6.14218272 C62.6466731,5.80798574 62.9396336,5.53222255 63.2983607,5.3147088 C63.6565092,5.09774806 64.1594986,4.98899118 64.8065574,4.98899118 C65.3311475,4.98899118 65.7988428,5.10161906 66.2098361,5.32742783 C66.6204436,5.55286792 66.9745419,5.87489887 67.2721311,6.29241467 L67.3245902,6.29241467 L67.3245902,0 L70,0 L70,17.8493994 L67.3245902,17.8493994 L67.3245902,16.6963922 Z" id="Fill-14" fill="#03A9F4" mask="url(#mask-2)"></path>
                <path d="M76.6743421,8.70712909 C76.6589348,8.27302221 76.5322901,7.94739601 76.2944079,7.7300663 C76.0561871,7.51347331 75.7839348,7.40462428 75.4769737,7.40462428 C75.1085526,7.40462428 74.8242792,7.53410121 74.625,7.79287091 C74.4253822,8.05182478 74.3256579,8.34816672 74.3256579,8.68189675 C74.3256579,8.9161708 74.3791602,9.14547206 74.4868421,9.37090559 C74.5940161,9.59633911 74.8703318,9.80096056 75.3157895,9.98458574 L76.6973684,10.5855576 C77.5723684,10.9531764 78.1746082,11.4541397 78.5049342,12.0884478 C78.8349216,12.7234926 79,13.4160008 79,14.1674459 C79,14.702298 78.9114503,15.1988411 78.7351974,15.657812 C78.5584365,16.1173354 78.3168295,16.522158 78.0098684,16.8728324 C77.7025687,17.2233226 77.3341476,17.4988524 76.9046053,17.6992378 C76.474555,17.8998073 76.0065789,18 75.5,18 C75.0394737,18 74.6019737,17.9161991 74.1875,17.7495183 C73.7730263,17.5826533 73.4081608,17.3404596 73.09375,17.0229372 C72.7790006,16.7061515 72.5216476,16.3090644 72.3223684,15.8331492 C72.1227506,15.3572339 72.0150687,14.8024906 72,14.1674459 L74.2105263,14.1674459 C74.2565789,14.5183044 74.3676471,14.8437465 74.5444079,15.1443245 C74.7206608,15.4450867 75.0315161,15.5951915 75.4769737,15.5951915 C75.8144108,15.5951915 76.1176471,15.474371 76.3865132,15.2321773 C76.6548713,14.9901677 76.7894737,14.6520175 76.7894737,14.2177264 C76.7894737,13.867052 76.7049874,13.566474 76.5361842,13.3158081 C76.3670424,13.0655106 76.0602506,12.8485492 75.6151316,12.6645557 L74.4868421,12.2138728 C73.75,11.9131106 73.1704479,11.4666638 72.7483553,10.8737958 C72.325924,10.281296 72.1151316,9.55876686 72.1151316,8.70712909 C72.1151316,8.17282954 72.2072368,7.67610223 72.3914474,7.21657883 C72.5756579,6.75760796 72.8250532,6.36494106 73.1398026,6.03949904 C73.4542134,5.71387283 73.8190789,5.45933923 74.2335526,5.27534569 C74.6480263,5.09190468 75.0931453,5 75.5690789,5 C76.044674,5 76.4862374,5.09632495 76.8930921,5.28805395 C77.2996082,5.48015131 77.6488971,5.738921 77.9407895,6.06436303 C78.232174,6.39017341 78.4624371,6.78265613 78.6315789,7.24181118 C78.8003822,7.7011504 78.8848684,8.18958971 78.8848684,8.70712909 L76.6743421,8.70712909 Z" id="Fill-15" fill="#03A9F4" mask="url(#mask-2)"></path>
                <path d="M61,23 C61.9983665,23 62.685132,23.1922943 63.8848239,23.6842892 C63.9461363,23.7094476 63.9461363,23.7094476 64.0063632,23.7341513 C64.0520898,23.7528933 64.0892665,23.7680816 64.124738,23.7824974 C64.876411,24.0879821 65.2914526,24.2 65.7881773,24.2 L79,24.2 L79,27 L65.7881773,27 C64.9387453,27 64.2825991,26.8229091 63.2830343,26.4166795 C63.2451541,26.4012848 63.2059866,26.3852832 63.1583193,26.3657458 C63.0968987,26.3405524 63.0968987,26.3405524 63.0363584,26.3157108 C62.0891773,25.9272709 61.6346384,25.8 61,25.8 C60.337286,25.8 59.862639,25.9272709 58.8735558,26.3157108 C58.8103373,26.3405524 58.8103373,26.3405524 58.7461995,26.3657458 C58.6964234,26.3852832 58.6555232,26.4012848 58.6159673,26.4166795 C57.572183,26.8229091 56.8870098,27 56,27 C55.1129902,27 54.427817,26.8229091 53.3840327,26.4166795 C53.3444768,26.4012848 53.3035766,26.3852832 53.2538005,26.3657458 C53.1896627,26.3405524 53.1896627,26.3405524 53.1264442,26.3157108 C52.137361,25.9272709 51.662714,25.8 51,25.8 C50.337286,25.8 49.862639,25.9272709 48.8735558,26.3157108 C48.8103373,26.3405524 48.8103373,26.3405524 48.7461995,26.3657458 C48.6964234,26.3852832 48.6555232,26.4012848 48.6159673,26.4166795 C47.572183,26.8229091 46.8870098,27 46,27 C45.1129902,27 44.427817,26.8229091 43.3840327,26.4166795 C43.3444768,26.4012848 43.3035766,26.3852832 43.2538005,26.3657458 C43.1896627,26.3405524 43.1896627,26.3405524 43.1264442,26.3157108 C42.137361,25.9272709 41.662714,25.8 41,25.8 C40.357878,25.8 39.8979793,25.9272709 38.9396291,26.3157108 C38.8783749,26.3405524 38.8783749,26.3405524 38.81623,26.3657458 C38.7680006,26.3852832 38.7283713,26.4012848 38.6900445,26.4166795 C37.6786928,26.8229091 37.0148095,27 36.1553611,27 L0,27 L0,24.2 L36.1553611,24.2 C36.6579431,24.2 37.0778789,24.0879821 37.8384154,23.7824974 C37.8743053,23.7680816 37.9119203,23.7528933 37.9581861,23.7341513 C38.0191232,23.7094476 38.0191232,23.7094476 38.0811586,23.6842892 C39.2949971,23.1922943 39.9898609,23 41,23 C42.0425329,23 42.75968,23.1922943 44.0124447,23.6842892 C44.0764695,23.7094476 44.0764695,23.7094476 44.1393608,23.7341513 C44.1871103,23.7528933 44.2259316,23.7680816 44.2629723,23.7824974 C45.0478983,24.0879821 45.4813008,24.2 46,24.2 C46.5186992,24.2 46.9521017,24.0879821 47.7370277,23.7824974 C47.7740684,23.7680816 47.8128897,23.7528933 47.8606392,23.7341513 C47.9235305,23.7094476 47.9235305,23.7094476 47.9875553,23.6842892 C49.24032,23.1922943 49.9574671,23 51,23 C52.0425329,23 52.75968,23.1922943 54.0124447,23.6842892 C54.0764695,23.7094476 54.0764695,23.7094476 54.1393608,23.7341513 C54.1871103,23.7528933 54.2259316,23.7680816 54.2629723,23.7824974 C55.0478983,24.0879821 55.4813008,24.2 56,24.2 C56.5186992,24.2 56.9521017,24.0879821 57.7370277,23.7824974 C57.7740684,23.7680816 57.8128897,23.7528933 57.8606392,23.7341513 C57.9235305,23.7094476 57.9235305,23.7094476 57.9875553,23.6842892 C59.24032,23.1922943 59.9574671,23 61,23 Z M61,19 C61.9983665,19 62.685132,19.1922943 63.8848239,19.6842892 C63.9461363,19.7094476 63.9461363,19.7094476 64.0063632,19.7341513 C64.0520898,19.7528933 64.0892665,19.7680816 64.124738,19.7824974 C64.876411,20.0879821 65.2914526,20.2 65.7881773,20.2 L79,20.2 L79,23 L65.7881773,23 C64.9387453,23 64.2825991,22.8229091 63.2830343,22.4166795 C63.2451541,22.4012848 63.2059866,22.3852832 63.1583193,22.3657458 C63.0968987,22.3405524 63.0968987,22.3405524 63.0363584,22.3157108 C62.0891773,21.9272709 61.6346384,21.8 61,21.8 C60.337286,21.8 59.862639,21.9272709 58.8735558,22.3157108 C58.8103373,22.3405524 58.8103373,22.3405524 58.7461995,22.3657458 C58.6964234,22.3852832 58.6555232,22.4012848 58.6159673,22.4166795 C57.572183,22.8229091 56.8870098,23 56,23 C55.1129902,23 54.427817,22.8229091 53.3840327,22.4166795 C53.3444768,22.4012848 53.3035766,22.3852832 53.2538005,22.3657458 C53.1896627,22.3405524 53.1896627,22.3405524 53.1264442,22.3157108 C52.137361,21.9272709 51.662714,21.8 51,21.8 C50.337286,21.8 49.862639,21.9272709 48.8735558,22.3157108 C48.8103373,22.3405524 48.8103373,22.3405524 48.7461995,22.3657458 C48.6964234,22.3852832 48.6555232,22.4012848 48.6159673,22.4166795 C47.572183,22.8229091 46.8870098,23 46,23 C45.1129902,23 44.427817,22.8229091 43.3840327,22.4166795 C43.3444768,22.4012848 43.3035766,22.3852832 43.2538005,22.3657458 C43.1896627,22.3405524 43.1896627,22.3405524 43.1264442,22.3157108 C42.137361,21.9272709 41.662714,21.8 41,21.8 C40.357878,21.8 39.8979793,21.9272709 38.9396291,22.3157108 C38.8783749,22.3405524 38.8783749,22.3405524 38.81623,22.3657458 C38.7680006,22.3852832 38.7283713,22.4012848 38.6900445,22.4166795 C37.6786928,22.8229091 37.0148095,23 36.1553611,23 L0,23 L0,20.2 L36.1553611,20.2 C36.6579431,20.2 37.0778789,20.0879821 37.8384154,19.7824974 C37.8743053,19.7680816 37.9119203,19.7528933 37.9581861,19.7341513 C38.0191232,19.7094476 38.0191232,19.7094476 38.0811586,19.6842892 C39.2949971,19.1922943 39.9898609,19 41,19 C42.0425329,19 42.75968,19.1922943 44.0124447,19.6842892 C44.0764695,19.7094476 44.0764695,19.7094476 44.1393608,19.7341513 C44.1871103,19.7528933 44.2259316,19.7680816 44.2629723,19.7824974 C45.0478983,20.0879821 45.4813008,20.2 46,20.2 C46.5186992,20.2 46.9521017,20.0879821 47.7370277,19.7824974 C47.7740684,19.7680816 47.8128897,19.7528933 47.8606392,19.7341513 C47.9235305,19.7094476 47.9235305,19.7094476 47.9875553,19.6842892 C49.24032,19.1922943 49.9574671,19 51,19 C52.0425329,19 52.75968,19.1922943 54.0124447,19.6842892 C54.0764695,19.7094476 54.0764695,19.7094476 54.1393608,19.7341513 C54.1871103,19.7528933 54.2259316,19.7680816 54.2629723,19.7824974 C55.0478983,20.0879821 55.4813008,20.2 56,20.2 C56.5186992,20.2 56.9521017,20.0879821 57.7370277,19.7824974 C57.7740684,19.7680816 57.8128897,19.7528933 57.8606392,19.7341513 C57.9235305,19.7094476 57.9235305,19.7094476 57.9875553,19.6842892 C59.24032,19.1922943 59.9574671,19 61,19 Z" id="Combined-Shape" fill="#03A9F4" fill-rule="nonzero" mask="url(#mask-2)"></path>
            </g>
        </g>
    </g>
</svg>