<svg id="Layer_1" data-name="Layer 1" xmlns="http://www.w3.org/2000/svg" xmlns:xlink="http://www.w3.org/1999/xlink" width="28" height="28" viewBox="0 0 28 28"><defs><clipPath id="clip-path"><polyline points="4.667 4.667 23.667 4.667 23.667 23.667 4.667 23.667 4.667 4.667" style="fill:none"/></clipPath></defs><title>marker-caution-small</title><g id="marker_v2_caution" data-name="marker/v2/caution"><g id="Group-8"><g id="Oval"><g id="path-1"><circle cx="14" cy="14" r="14" style="fill:#ffc107"/></g></g><g style="opacity:0.30000001192092896"><path d="M14,28A14,14,0,1,1,28,14,14.0157,14.0157,0,0,1,14,28ZM14,2A12,12,0,1,0,26,14,12.0137,12.0137,0,0,0,14,2Z"/></g><g style="clip-path:url(#clip-path)"><path d="M10.5615,17.333l3.605-6.3086,3.605,6.3086h-7.21M14.1667,6.25a1.5683,1.5683,0,0,0-1.3747.798L6.4585,18.1309A1.5836,1.5836,0,0,0,7.8335,20.5H20.5a1.5838,1.5838,0,0,0,1.375-2.3691L15.541,7.0479a1.5674,1.5674,0,0,0-1.3743-.798"/></g></g></g></svg>