<svg id="Layer_1" data-name="Layer 1" xmlns="http://www.w3.org/2000/svg" width="28" height="28" viewBox="0 0 28 28"><title>marker-closed-small</title><g id="Symbols"><g id="marker_v2_closed" data-name="marker/v2/closed"><g id="Group-8"><g id="Oval"><g id="path-1"><circle cx="14" cy="14" r="14" style="fill:#f44336"/></g></g><g style="opacity:0.30000001192092896"><path d="M14,28A14,14,0,1,1,28,14,14.0157,14.0157,0,0,1,14,28ZM14,2A12,12,0,1,0,26,14,12.0137,12.0137,0,0,0,14,2Z"/></g><polyline points="19.357 7.042 14.319 12.08 9.281 7.042 7.042 9.281 12.08 14.319 7.042 19.357 9.281 21.597 14.319 16.559 19.357 21.597 21.597 19.357 16.559 14.319 21.597 9.281 19.357 7.042" style="fill:#fff"/></g></g></g></svg>