<?xml version="1.0" encoding="UTF-8"?>
<svg width="28px" height="28px" viewBox="0 0 28 28" version="1.1" xmlns="http://www.w3.org/2000/svg" xmlns:xlink="http://www.w3.org/1999/xlink">
    <!-- Generator: Sketch 49 (51002) - http://www.bohemiancoding.com/sketch -->
    <title>marker/marker-caution-small</title>
    <desc>Created with Sketch.</desc>
    <defs>
        <circle id="path-1" cx="14" cy="14" r="14"></circle>
        <circle id="path-3" cx="14" cy="14" r="14"></circle>
        <path d="M3.16666667,15.8333333 C1.95094744,15.8333333 1.18878271,14.5199866 1.79194836,13.4644467 L8.12528169,2.38111335 C8.73311408,1.31740666 10.2668859,1.31740666 10.8747183,2.38111335 L17.2080516,13.4644467 C17.8112173,14.5199866 17.0490526,15.8333333 15.8333333,15.8333333 L3.16666667,15.8333333 Z M5.89503449,12.6666667 L13.1049655,12.6666667 L9.5,6.35797703 L5.89503449,12.6666667 Z" id="path-5"></path>
    </defs>
    <g id="marker/marker-caution-small" stroke="none" stroke-width="1" fill="none" fill-rule="evenodd">
        <g id="Group-8">
            <mask id="mask-2" fill="white">
                <use xlink:href="#path-1"></use>
            </mask>
            <use id="Oval" fill="#D8D8D8" xlink:href="#path-1"></use>
            <g id="color/amber500" mask="url(#mask-2)" fill="#FFC107">
                <rect id="Rectangle-5" x="0" y="0" width="28" height="28"></rect>
            </g>
            <mask id="mask-4" fill="white">
                <use xlink:href="#path-3"></use>
            </mask>
            <circle stroke-opacity="0.3" stroke="#000000" stroke-width="2" cx="14" cy="14" r="13"></circle>
            <g id="ic/status_caution/black" mask="url(#mask-4)">
                <g transform="translate(4.666667, 4.666667)">
                    <polygon id="Shape" stroke="none" fill="none" points="0 0 19 0 19 19 0 19"></polygon>
                    <mask id="mask-6" fill="white">
                        <use xlink:href="#path-5"></use>
                    </mask>
                    <g id="Path-3" stroke="none" fill="none" fill-rule="nonzero"></g>
                    <g id="color/black" stroke="none" fill="none" mask="url(#mask-6)" fill-rule="evenodd">
                        <rect id="Rectangle-5" fill="#000000" x="0" y="0" width="19" height="19"></rect>
                    </g>
                </g>
            </g>
        </g>
    </g>
</svg>