<?xml version="1.0" encoding="UTF-8"?>
<svg width="28px" height="28px" viewBox="0 0 28 28" version="1.1" xmlns="http://www.w3.org/2000/svg" xmlns:xlink="http://www.w3.org/1999/xlink">
    <!-- Generator: Sketch 49 (51002) - http://www.bohemiancoding.com/sketch -->
    <title>marker/marker-open-small</title>
    <desc>Created with Sketch.</desc>
    <defs>
        <circle id="path-1" cx="14" cy="14" r="14"></circle>
        <circle id="path-3" cx="14" cy="14" r="14"></circle>
        <path d="M14,6 C18.416,6 22,9.584 22,14 C22,18.416 18.416,22 14,22 C9.584,22 6,18.416 6,14 C6,9.584 9.584,6 14,6 Z M14,9.2 C11.3504,9.2 9.2,11.3504 9.2,14 C9.2,16.6496 11.3504,18.8 14,18.8 C16.6496,18.8 18.8,16.6496 18.8,14 C18.8,11.3504 16.6496,9.2 14,9.2 Z" id="path-5"></path>
    </defs>
    <g id="marker/marker-open-small" stroke="none" stroke-width="1" fill="none" fill-rule="evenodd">
        <mask id="mask-2" fill="white">
            <use xlink:href="#path-1"></use>
        </mask>
        <use id="Oval" fill="#009688" xlink:href="#path-1"></use>
        <mask id="mask-4" fill="white">
            <use xlink:href="#path-3"></use>
        </mask>
        <circle stroke-opacity="0.3" stroke="#000000" stroke-width="2" cx="14" cy="14" r="13"></circle>
        <mask id="mask-6" fill="white">
            <use xlink:href="#path-5"></use>
        </mask>
        <use id="Combined-Shape" fill="#FFFFFF" fill-rule="nonzero" xlink:href="#path-5"></use>
    </g>
</svg>