<svg id="Layer_1" data-name="Layer 1" xmlns="http://www.w3.org/2000/svg" width="28" height="28" viewBox="0 0 28 28"><title>marker-long-term-small</title><g id="Symbols"><g id="marker_v2_longterm" data-name="marker/v2/longterm"><g id="Group-8"><g id="Oval"><g id="path-1"><circle cx="14" cy="14" r="14" style="fill:#f44336"/></g></g><g style="opacity:0.30000001192092896"><path d="M14,28A14,14,0,1,1,28,14,14.0157,14.0157,0,0,1,14,28ZM14,2A12,12,0,1,0,26,14,12.0137,12.0137,0,0,0,14,2Z"/></g><path d="M22.083,18.917H6.25v3.166H22.083V18.917M17.2539,6.7139,13.895,10.0723,10.5361,6.7139,8.2969,8.9531l3.3589,3.3584L8.2969,15.6709l2.2393,2.2383,3.3589-3.3584,3.3589,3.3584,2.2393-2.2383-3.3594-3.3594,3.3594-3.3584L17.2539,6.7139" style="fill:#fff"/></g></g></g></svg>