<svg id="Layer_1" data-name="Layer 1" xmlns="http://www.w3.org/2000/svg" width="28" height="28" viewBox="0 0 28 28"><title>marker-open-small</title><g id="mask-6"><path id="path-5" d="M14,6a8,8,0,1,1-8,8A8.0029,8.0029,0,0,1,14,6Zm0,3.2A4.8,4.8,0,1,0,18.8,14,4.8018,4.8018,0,0,0,14,9.2Z" style="fill:#fff"/></g><g id="mask-4"><circle id="path-3" cx="14" cy="14" r="14" style="fill:#fff"/></g><g id="mask-2"><circle id="path-1" cx="14" cy="14" r="14" style="fill:#fff"/></g><g id="Symbols"><g id="marker_marker-open-small" data-name="marker/marker-open-small"><g id="Oval"><g id="path-1-2" data-name="path-1"><circle cx="14" cy="14" r="14" style="fill:#009688"/></g></g><g style="opacity:0.30000001192092896"><path d="M14,28A14,14,0,1,1,28,14,14.0157,14.0157,0,0,1,14,28ZM14,2A12,12,0,1,0,26,14,12.0137,12.0137,0,0,0,14,2Z"/></g><g id="Combined-Shape"><g id="path-5-2" data-name="path-5"><path d="M14,6a8,8,0,1,1-8,8A8.0029,8.0029,0,0,1,14,6Zm0,3.2A4.8,4.8,0,1,0,18.8,14,4.8018,4.8018,0,0,0,14,9.2Z" style="fill:#fff"/></g></g></g></g></svg>