<svg width="14" height="14" xmlns="http://www.w3.org/2000/svg" xmlns:svg="http://www.w3.org/2000/svg" xmlns:se="http://svg-edit.googlecode.com" data-name="Layer 1">
 <title>marker-closed-small</title>
  <g id="Symbols">
   <g data-name="marker/v2/closed" id="marker_v2_closed">
    <g id="Group-8">
     <g id="Oval">
      <g id="path-1">
       <circle cx="6.99611" cy="6.99611" fill="#f44336" id="svg_1" r="6.93976"/>
      </g>
     </g>
     <g id="svg_2" opacity="0.3">
      <path d="m6.99621,13.96426a6.96804,6.96804 0 1 1 6.96804,-6.96804a6.97586,6.97586 0 0 1 -6.96804,6.96804zm0,-12.94064a5.97261,5.97261 0 1 0 5.97261,5.97261a5.97943,5.97943 0 0 0 -5.97261,-5.97261z" id="svg_3"/>
     </g>
     <path d="m11.01927,9.44349l-7.88036,0l0,1.57577l7.88036,0l0,-1.57577m-2.40353,-6.07369l-1.67178,1.67154l-1.67178,-1.67154l-1.11449,1.11449l1.67178,1.67154l-1.67178,1.67203l1.11454,1.11404l1.67178,-1.67154l1.67178,1.67154l1.11454,-1.11404l-1.67203,-1.67203l1.67203,-1.67154l-1.11459,-1.11449" fill="#fff" id="svg_4"/>
    </g>
   </g>
  </g>
</svg>
