<svg width="14" height="14" xmlns="http://www.w3.org/2000/svg" xmlns:svg="http://www.w3.org/2000/svg" xmlns:se="http://svg-edit.googlecode.com" data-name="Layer 1">
 <title>marker-closed-small</title>
  <g id="Symbols">
   <g data-name="marker/v2/closed" id="marker_v2_closed">
    <g id="Group-8">
     <g id="Oval">
      <g id="path-1">
       <circle cx="6.99611" cy="6.99611" fill="#f44336" id="svg_1" r="6.93976"/>
      </g>
     </g>
     <g id="svg_2" opacity="0.3">
      <path d="m6.99611,13.93586a6.93976,6.93976 0 1 1 6.93976,-6.93976a6.94754,6.94754 0 0 1 -6.93976,6.93976zm0,-12.88811a5.94836,5.94836 0 1 0 5.94836,5.94836a5.95515,5.95515 0 0 0 -5.94836,-5.94836z" id="svg_3"/>
     </g>
     <polyline fill="#fff" id="svg_4" points="9.651549591369474,3.54704428139953 7.154228487045998,6.044364904982012 4.656918439765377,3.54704428139953 3.5470473317381277,4.656915149056283 6.044367714950113,7.154235291897771 3.5470473317381277,9.651556396221245 4.656918439765377,10.761953675266078 7.154228487045998,8.264593630922114 9.651549591369474,10.761953675266078 10.761876682229229,9.651556396221245 8.264596440890216,7.154235291897771 10.761876682229229,4.656915149056283 9.651549591369474,3.54704428139953 "/>
    </g>
   </g>
  </g>
</svg>
